<svg width="40" height="40" viewBox="0 0 40 40" fill="none" xmlns="http://www.w3.org/2000/svg">
<path fill-rule="evenodd" clip-rule="evenodd" d="M32.9163 20C32.9163 19.3096 32.3567 18.75 31.6663 18.75H8.33301C7.64265 18.75 7.08301 19.3096 7.08301 20C7.08301 20.6903 7.64265 21.25 8.33301 21.25H31.6663C32.3567 21.25 32.9163 20.6903 32.9163 20Z" fill="black"/>
<path fill-rule="evenodd" clip-rule="evenodd" d="M32.9163 11.6667C32.9163 10.9763 32.3567 10.4167 31.6663 10.4167H8.33301C7.64265 10.4167 7.08301 10.9763 7.08301 11.6667C7.08301 12.357 7.64265 12.9167 8.33301 12.9167H31.6663C32.3567 12.9167 32.9163 12.357 32.9163 11.6667Z" fill="black"/>
<path fill-rule="evenodd" clip-rule="evenodd" d="M32.9163 28.3333C32.9163 27.643 32.3567 27.0833 31.6663 27.0833H8.33301C7.64265 27.0833 7.08301 27.643 7.08301 28.3333C7.08301 29.0237 7.64265 29.5833 8.33301 29.5833H31.6663C32.3567 29.5833 32.9163 29.0237 32.9163 28.3333Z" fill="black"/>
</svg>
