<svg width="376" height="448" viewBox="0 0 376 448" fill="none" xmlns="http://www.w3.org/2000/svg">
<path d="M260.855 346.041C263.525 346.616 265.763 347.84 267.495 349.674C273.702 356.114 271.681 366.619 263.489 370.36C261.649 371.188 260.854 371.331 258.256 371.331C255.658 371.331 254.864 371.188 253.023 370.36C241.871 365.252 243.315 349.099 255.188 346.149C257.534 345.574 258.508 345.574 260.854 346.041L260.855 346.041ZM228.013 358.633C230.683 359.208 232.921 360.432 234.653 362.266C239.597 367.374 239.453 375.576 234.364 380.398C229.348 385.218 221.48 385.218 216.464 380.398C209.174 373.49 212.53 361.151 222.346 358.741C224.692 358.165 225.666 358.165 228.012 358.633L228.013 358.633ZM294.419 358.633C297.09 359.208 299.328 360.432 301.06 362.266C306.003 367.374 305.859 375.576 300.771 380.398C295.754 385.218 287.887 385.218 282.87 380.398C275.58 373.49 278.936 361.151 288.752 358.741C291.098 358.165 292.072 358.165 294.418 358.633L294.419 358.633ZM262.228 385.039C274.715 386.046 285.939 391.803 291.425 400.04C296.19 407.091 296.19 415.869 291.425 422.921C286.915 429.684 278.325 434.936 268.364 437.059C265.26 437.706 263.42 437.85 258.259 437.85C253.098 437.85 251.257 437.706 248.153 437.059C223.576 431.843 213.616 410.833 228.557 395.831C233.176 391.227 240.719 387.414 248.153 385.939C252.123 385.183 257.572 384.536 258.8 384.715C259.197 384.787 260.748 384.931 262.228 385.039L262.228 385.039Z" fill="#FBFBFB"/>
<path d="M393.843 262.821C396.514 263.397 398.751 264.62 400.483 266.455C406.69 272.894 404.669 283.399 396.477 287.14C394.637 287.968 393.842 288.111 391.244 288.111C388.646 288.111 387.852 287.968 386.012 287.14C374.86 282.032 376.304 265.879 388.177 262.929C390.522 262.354 391.497 262.354 393.842 262.821L393.843 262.821ZM361.001 275.413C363.672 275.988 365.909 277.212 367.641 279.046C372.585 284.155 372.441 292.357 367.352 297.178C362.336 301.998 354.468 301.998 349.452 297.178C342.162 290.271 345.518 277.932 355.334 275.521C357.68 274.946 358.654 274.946 361 275.413L361.001 275.413ZM427.408 275.413C430.078 275.988 432.316 277.212 434.048 279.046C438.992 284.155 438.848 292.357 433.759 297.178C428.743 301.998 420.875 301.998 415.858 297.178C408.569 290.271 411.925 277.932 421.741 275.521C424.087 274.946 425.061 274.946 427.406 275.413L427.408 275.413ZM395.216 301.819C407.703 302.826 418.928 308.583 424.414 316.82C429.178 323.871 429.178 332.649 424.414 339.701C419.903 346.465 411.313 351.717 401.352 353.839C398.249 354.486 396.408 354.63 391.247 354.63C386.087 354.63 384.245 354.486 381.142 353.839C356.564 348.623 346.605 327.613 361.545 312.612C366.164 308.007 373.707 304.194 381.142 302.719C385.111 301.963 390.56 301.316 391.788 301.495C392.185 301.567 393.737 301.711 395.216 301.819L395.216 301.819Z" fill="#FBFBFB"/>
<path d="M260.855 200.03C263.525 200.605 265.763 201.829 267.495 203.663C273.702 210.103 271.681 220.608 263.489 224.349C261.649 225.177 260.854 225.32 258.256 225.32C255.658 225.32 254.864 225.177 253.023 224.349C241.871 219.241 243.315 203.088 255.188 200.138C257.534 199.563 258.508 199.563 260.854 200.03L260.855 200.03ZM228.013 212.622C230.683 213.197 232.921 214.421 234.653 216.255C239.597 221.363 239.453 229.565 234.364 234.387C229.348 239.207 221.48 239.207 216.464 234.387C209.174 227.48 212.53 215.14 222.346 212.73C224.692 212.155 225.666 212.155 228.012 212.622L228.013 212.622ZM294.419 212.622C297.09 213.197 299.328 214.421 301.06 216.255C306.003 221.363 305.859 229.565 300.771 234.387C295.754 239.207 287.887 239.207 282.87 234.387C275.58 227.48 278.936 215.14 288.752 212.73C291.098 212.155 292.072 212.155 294.418 212.622L294.419 212.622ZM262.228 239.028C274.715 240.035 285.939 245.792 291.425 254.029C296.19 261.08 296.19 269.858 291.425 276.91C286.915 283.674 278.325 288.925 268.364 291.048C265.26 291.695 263.42 291.839 258.259 291.839C253.098 291.839 251.257 291.695 248.153 291.048C223.576 285.832 213.616 264.822 228.557 249.821C233.176 245.216 240.719 241.403 248.153 239.928C252.123 239.172 257.572 238.525 258.8 238.704C259.197 238.776 260.748 238.92 262.228 239.028L262.228 239.028Z" fill="#FBFBFB"/>
<path d="M393.843 116.811C396.514 117.386 398.751 118.609 400.483 120.444C406.69 126.883 404.669 137.388 396.477 141.129C394.637 141.957 393.842 142.101 391.244 142.101C388.646 142.101 387.852 141.957 386.012 141.129C374.86 136.021 376.304 119.869 388.177 116.918C390.522 116.343 391.497 116.343 393.842 116.81L393.843 116.811ZM361.001 129.402C363.672 129.977 365.909 131.201 367.641 133.035C372.585 138.144 372.441 146.346 367.352 151.167C362.336 155.987 354.468 155.987 349.452 151.167C342.162 144.26 345.518 131.921 355.334 129.51C357.68 128.935 358.654 128.935 361 129.402L361.001 129.402ZM427.408 129.402C430.078 129.977 432.316 131.201 434.048 133.035C438.992 138.144 438.848 146.346 433.759 151.167C428.743 155.987 420.875 155.987 415.858 151.167C408.569 144.26 411.925 131.921 421.741 129.51C424.087 128.935 425.061 128.935 427.406 129.402L427.408 129.402ZM395.216 155.808C407.703 156.815 418.928 162.572 424.414 170.81C429.178 177.86 429.178 186.639 424.414 193.69C419.903 200.454 411.313 205.706 401.352 207.828C398.249 208.476 396.408 208.619 391.247 208.619C386.087 208.619 384.245 208.476 381.142 207.828C356.564 202.612 346.605 181.602 361.545 166.601C366.164 161.996 373.707 158.183 381.142 156.708C385.111 155.953 390.56 155.305 391.788 155.484C392.185 155.557 393.737 155.7 395.216 155.808L395.216 155.808Z" fill="#FBFBFB"/>
<path d="M260.855 44.5578C263.525 45.133 265.763 46.3566 267.495 48.191C273.702 54.6307 271.681 65.1355 263.489 68.8767C261.649 69.7043 260.854 69.8479 258.256 69.8479C255.658 69.8479 254.864 69.7043 253.023 68.8767C241.871 63.7683 243.315 47.6158 255.188 44.6656C257.534 44.0904 258.508 44.0904 260.854 44.5577L260.855 44.5578ZM228.013 57.1495C230.683 57.7247 232.921 58.9483 234.653 60.7826C239.597 65.891 239.453 74.0931 234.364 78.9143C229.348 83.7346 221.48 83.7346 216.464 78.9143C209.174 72.0071 212.53 59.668 222.346 57.2573C224.692 56.6821 225.666 56.6821 228.012 57.1494L228.013 57.1495ZM294.419 57.1495C297.09 57.7247 299.328 58.9483 301.06 60.7826C306.003 65.891 305.859 74.0931 300.771 78.9143C295.754 83.7346 287.887 83.7346 282.87 78.9143C275.58 72.0071 278.936 59.668 288.752 57.2573C291.098 56.6821 292.072 56.6821 294.418 57.1494L294.419 57.1495ZM262.228 83.5557C274.715 84.5626 285.939 90.3193 291.425 98.5569C296.19 105.608 296.19 114.386 291.425 121.438C286.915 128.201 278.325 133.453 268.364 135.575C265.26 136.223 263.42 136.366 258.259 136.366C253.098 136.366 251.257 136.223 248.153 135.575C223.576 130.359 213.616 109.349 228.557 94.3481C233.176 89.7437 240.719 85.9302 248.153 84.4553C252.123 83.6999 257.572 83.0525 258.8 83.2317C259.197 83.3039 260.748 83.4475 262.228 83.5554L262.228 83.5557Z" fill="#FBFBFB"/>
<path d="M393.843 -38.6619C396.514 -38.0867 398.751 -36.863 400.483 -35.0287C406.69 -28.589 404.669 -18.0842 396.477 -14.343C394.637 -13.5154 393.842 -13.3718 391.244 -13.3718C388.646 -13.3718 387.852 -13.5154 386.012 -14.343C374.86 -19.4514 376.304 -35.6039 388.177 -38.5541C390.522 -39.1293 391.497 -39.1293 393.842 -38.662L393.843 -38.6619ZM361.001 -26.0702C363.672 -25.495 365.909 -24.2714 367.641 -22.437C372.585 -17.3287 372.441 -9.12664 367.352 -4.30539C362.336 0.514866 354.468 0.514866 349.452 -4.30539C342.162 -11.2125 345.518 -23.5517 355.334 -25.9624C357.68 -26.5376 358.654 -26.5376 361 -26.0703L361.001 -26.0702ZM427.408 -26.0702C430.078 -25.495 432.316 -24.2714 434.048 -22.437C438.992 -17.3287 438.848 -9.12664 433.759 -4.30539C428.743 0.514866 420.875 0.514866 415.858 -4.30539C408.569 -11.2125 411.925 -23.5517 421.741 -25.9624C424.087 -26.5376 425.061 -26.5376 427.406 -26.0703L427.408 -26.0702ZM395.216 0.336044C407.703 1.34286 418.928 7.09965 424.414 15.3372C429.178 22.3879 429.178 31.1662 424.414 38.2179C419.903 44.9815 411.313 50.2334 401.352 52.3558C398.249 53.0032 396.408 53.1468 391.247 53.1468C386.087 53.1468 384.245 53.0032 381.142 52.3558C356.564 47.1396 346.605 26.1296 361.545 11.1284C366.164 6.52397 373.707 2.71053 381.142 1.23557C385.111 0.480213 390.56 -0.167244 391.788 0.0119705C392.185 0.0842323 393.737 0.227791 395.216 0.335697L395.216 0.336044Z" fill="#FBFBFB"/>
<path d="M-13.5328 355.503C-10.8622 356.078 -8.62469 357.302 -6.89264 359.136C-0.685497 365.576 -2.70654 376.08 -10.8989 379.822C-12.7391 380.649 -13.5335 380.793 -16.1316 380.793C-18.7297 380.793 -19.5242 380.649 -21.3644 379.822C-32.5162 374.713 -31.0722 358.561 -19.1993 355.611C-16.8535 355.035 -15.8792 355.035 -13.5335 355.503L-13.5328 355.503ZM-46.3748 368.094C-43.7042 368.67 -41.4667 369.893 -39.7346 371.728C-34.7909 376.836 -34.9349 385.038 -40.0236 389.859C-45.0399 394.679 -52.9076 394.679 -57.9241 389.859C-65.2137 382.952 -61.8578 370.613 -52.0418 368.202C-49.696 367.627 -48.7217 367.627 -46.376 368.094L-46.3748 368.094ZM20.0317 368.094C22.7023 368.67 24.9398 369.893 26.6719 371.728C31.6156 376.836 31.4716 385.038 26.3829 389.859C21.3666 394.679 13.4989 394.679 8.48245 389.859C1.19278 382.952 4.54874 370.613 14.3647 368.202C16.7105 367.627 17.6848 367.627 20.0305 368.094L20.0317 368.094ZM-12.1595 394.501C0.327255 395.507 11.5516 401.264 17.0378 409.502C21.8019 416.553 21.8019 425.331 17.0378 432.382C12.527 439.146 3.93732 444.398 -6.0239 446.52C-9.12747 447.168 -10.9676 447.311 -16.1291 447.311C-21.2894 447.311 -23.1308 447.168 -26.2344 446.52C-50.8116 441.304 -60.7713 420.294 -45.8309 405.293C-41.2118 400.689 -33.669 396.875 -26.2344 395.4C-22.2648 394.645 -16.8155 393.997 -15.588 394.177C-15.1907 394.249 -13.6394 394.392 -12.1598 394.5L-12.1595 394.501Z" fill="#FBFBFB"/>
<path d="M119.455 272.283C122.126 272.858 124.364 274.082 126.096 275.916C132.303 282.356 130.282 292.861 122.089 296.602C120.249 297.43 119.455 297.573 116.857 297.573C114.259 297.573 113.464 297.43 111.624 296.602C100.472 291.494 101.916 275.341 113.789 272.391C116.135 271.816 117.109 271.816 119.455 272.283L119.455 272.283ZM86.6135 284.875C89.284 285.45 91.5216 286.674 93.2536 288.508C98.1974 293.616 98.0534 301.818 92.9646 306.64C87.9484 311.46 80.0807 311.46 75.0642 306.64C67.7745 299.732 71.1305 287.393 80.9465 284.983C83.2923 284.407 84.2666 284.407 86.6122 284.875L86.6135 284.875ZM153.02 284.875C155.691 285.45 157.928 286.674 159.66 288.508C164.604 293.616 164.46 301.818 159.371 306.64C154.355 311.46 146.487 311.46 141.471 306.64C134.181 299.732 137.537 287.393 147.353 284.983C149.699 284.407 150.673 284.407 153.019 284.875L153.02 284.875ZM120.829 311.281C133.316 312.288 144.54 318.045 150.026 326.282C154.79 333.333 154.79 342.111 150.026 349.163C145.515 355.926 136.926 361.178 126.964 363.301C123.861 363.948 122.021 364.092 116.859 364.092C111.699 364.092 109.857 363.948 106.754 363.301C82.1767 358.085 72.217 337.075 87.1573 322.073C91.7765 317.469 99.3192 313.655 106.754 312.18C110.724 311.425 116.173 310.778 117.4 310.957C117.798 311.029 119.349 311.173 120.828 311.281L120.829 311.281Z" fill="#FBFBFB"/>
<path d="M-13.5328 209.492C-10.8622 210.067 -8.62469 211.291 -6.89264 213.125C-0.685497 219.565 -2.70654 230.07 -10.8989 233.811C-12.7391 234.638 -13.5335 234.782 -16.1316 234.782C-18.7297 234.782 -19.5242 234.638 -21.3644 233.811C-32.5162 228.702 -31.0722 212.55 -19.1993 209.6C-16.8535 209.025 -15.8792 209.025 -13.5335 209.492L-13.5328 209.492ZM-46.3748 222.084C-43.7042 222.659 -41.4667 223.882 -39.7346 225.717C-34.7909 230.825 -34.9349 239.027 -40.0236 243.848C-45.0399 248.669 -52.9076 248.669 -57.9241 243.848C-65.2137 236.941 -61.8578 224.602 -52.0418 222.191C-49.696 221.616 -48.7217 221.616 -46.376 222.084L-46.3748 222.084ZM20.0317 222.084C22.7023 222.659 24.9398 223.882 26.6719 225.717C31.6156 230.825 31.4716 239.027 26.3829 243.848C21.3666 248.669 13.4989 248.669 8.48245 243.848C1.19278 236.941 4.54874 224.602 14.3647 222.191C16.7105 221.616 17.6848 221.616 20.0305 222.084L20.0317 222.084ZM-12.1595 248.49C0.327255 249.497 11.5516 255.253 17.0378 263.491C21.8019 270.542 21.8019 279.32 17.0378 286.372C12.527 293.135 3.93732 298.387 -6.0239 300.51C-9.12747 301.157 -10.9676 301.301 -16.1291 301.301C-21.2894 301.301 -23.1308 301.157 -26.2344 300.51C-50.8116 295.293 -60.7713 274.283 -45.8309 259.282C-41.2118 254.678 -33.669 250.864 -26.2344 249.389C-22.2648 248.634 -16.8155 247.987 -15.588 248.166C-15.1907 248.238 -13.6394 248.382 -12.1598 248.49L-12.1595 248.49Z" fill="#FBFBFB"/>
<path d="M119.455 126.272C122.126 126.847 124.364 128.071 126.096 129.905C132.303 136.345 130.282 146.85 122.089 150.591C120.249 151.419 119.455 151.562 116.857 151.562C114.259 151.562 113.464 151.419 111.624 150.591C100.472 145.483 101.916 129.33 113.789 126.38C116.135 125.805 117.109 125.805 119.455 126.272L119.455 126.272ZM86.6135 138.864C89.284 139.439 91.5216 140.663 93.2536 142.497C98.1974 147.605 98.0534 155.808 92.9646 160.629C87.9484 165.449 80.0807 165.449 75.0642 160.629C67.7745 153.722 71.1305 141.382 80.9465 138.972C83.2923 138.397 84.2666 138.397 86.6122 138.864L86.6135 138.864ZM153.02 138.864C155.691 139.439 157.928 140.663 159.66 142.497C164.604 147.605 164.46 155.808 159.371 160.629C154.355 165.449 146.487 165.449 141.471 160.629C134.181 153.722 137.537 141.382 147.353 138.972C149.699 138.397 150.673 138.397 153.019 138.864L153.02 138.864ZM120.829 165.27C133.316 166.277 144.54 172.034 150.026 180.271C154.79 187.322 154.79 196.1 150.026 203.152C145.515 209.916 136.926 215.168 126.964 217.29C123.861 217.937 122.021 218.081 116.859 218.081C111.699 218.081 109.857 217.937 106.754 217.29C82.1767 212.074 72.217 191.064 87.1573 176.063C91.7765 171.458 99.3192 167.645 106.754 166.17C110.724 165.414 116.173 164.767 117.4 164.946C117.798 165.018 119.349 165.162 120.828 165.27L120.829 165.27Z" fill="#FBFBFB"/>
<path d="M-13.5328 54.0195C-10.8622 54.5947 -8.62469 55.8183 -6.89264 57.6527C-0.685497 64.0924 -2.70654 74.5972 -10.8989 78.3384C-12.7391 79.166 -13.5335 79.3096 -16.1316 79.3096C-18.7297 79.3096 -19.5242 79.166 -21.3644 78.3384C-32.5162 73.23 -31.0722 57.0775 -19.1993 54.1273C-16.8535 53.5521 -15.8792 53.5521 -13.5335 54.0194L-13.5328 54.0195ZM-46.3748 66.6112C-43.7042 67.1864 -41.4667 68.41 -39.7346 70.2443C-34.7909 75.3527 -34.9349 83.5548 -40.0236 88.376C-45.0399 93.1963 -52.9076 93.1963 -57.9241 88.376C-65.2137 81.4688 -61.8578 69.1297 -52.0418 66.719C-49.696 66.1438 -48.7217 66.1438 -46.376 66.6111L-46.3748 66.6112ZM20.0317 66.6112C22.7023 67.1864 24.9398 68.41 26.6719 70.2443C31.6156 75.3527 31.4716 83.5548 26.3829 88.376C21.3666 93.1963 13.4989 93.1963 8.48245 88.376C1.19278 81.4688 4.54874 69.1297 14.3647 66.719C16.7105 66.1438 17.6848 66.1438 20.0305 66.6111L20.0317 66.6112ZM-12.1595 93.0174C0.327255 94.0243 11.5516 99.781 17.0378 108.019C21.8019 115.069 21.8019 123.848 17.0378 130.899C12.527 137.663 3.93732 142.915 -6.0239 145.037C-9.12747 145.685 -10.9676 145.828 -16.1291 145.828C-21.2894 145.828 -23.1308 145.685 -26.2344 145.037C-50.8116 139.821 -60.7713 118.811 -45.8309 103.81C-41.2118 99.2054 -33.669 95.3919 -26.2344 93.917C-22.2648 93.1616 -16.8155 92.5142 -15.588 92.6934C-15.1907 92.7656 -13.6394 92.9092 -12.1598 93.0171L-12.1595 93.0174Z" fill="#FBFBFB"/>
<path d="M119.455 -29.2001C122.126 -28.6249 124.364 -27.4013 126.096 -25.567C132.303 -19.1272 130.282 -8.62243 122.089 -4.88125C120.249 -4.05363 119.455 -3.91007 116.857 -3.91007C114.259 -3.91007 113.464 -4.05363 111.624 -4.88125C100.472 -9.9896 101.916 -26.1421 113.789 -29.0923C116.135 -29.6675 117.109 -29.6675 119.455 -29.2002L119.455 -29.2001ZM86.6135 -16.6084C89.284 -16.0332 91.5216 -14.8096 93.2536 -12.9753C98.1974 -7.86694 98.0534 0.335123 92.9646 5.15637C87.9484 9.97663 80.0807 9.97663 75.0642 5.15637C67.7745 -1.75079 71.1305 -14.0899 80.9465 -16.5006C83.2923 -17.0758 84.2666 -17.0758 86.6122 -16.6085L86.6135 -16.6084ZM153.02 -16.6084C155.691 -16.0332 157.928 -14.8096 159.66 -12.9753C164.604 -7.86694 164.46 0.335123 159.371 5.15637C154.355 9.97663 146.487 9.97663 141.471 5.15637C134.181 -1.75079 137.537 -14.0899 147.353 -16.5006C149.699 -17.0758 150.673 -17.0758 153.019 -16.6085L153.02 -16.6084ZM120.829 9.79781C133.316 10.8046 144.54 16.5614 150.026 24.799C154.79 31.8497 154.79 40.6279 150.026 47.6796C145.515 54.4432 136.926 59.6951 126.964 61.8175C123.861 62.465 122.021 62.6085 116.859 62.6085C111.699 62.6085 109.857 62.465 106.754 61.8175C82.1767 56.6014 72.217 35.5914 87.1573 20.5902C91.7765 15.9857 99.3192 12.1723 106.754 10.6973C110.724 9.94197 116.173 9.29452 117.4 9.47373C117.798 9.54599 119.349 9.68955 120.828 9.79746L120.829 9.79781Z" fill="#FBFBFB"/>
</svg>
