<svg width="234" height="20" viewBox="0 0 234 20" fill="none" xmlns="http://www.w3.org/2000/svg">
<circle cx="10" cy="10" r="8.75" stroke="#F6F8FB" stroke-width="2.5"/>
<mask id="mask0_5271_1958" style="mask-type:alpha" maskUnits="userSpaceOnUse" x="0" y="0" width="20" height="20">
<circle cx="10" cy="10" r="8.75" stroke="#FF4869" stroke-width="2.5"/>
</mask>
<g mask="url(#mask0_5271_1958)">
<mask id="path-3-inside-1_5271_1958" fill="white">
<path d="M2.78158e-06 10C2.89638e-06 8.68678 0.25866 7.38642 0.761207 6.17317C1.26376 4.95991 2.00035 3.85752 2.92894 2.92893C3.85752 2.00035 4.95991 1.26375 6.17317 0.761204C7.38642 0.258658 8.68678 9.18316e-07 10 1.03312e-06L10 2.5C9.01509 2.5 8.03982 2.69399 7.12988 3.0709C6.21993 3.44781 5.39314 4.00026 4.6967 4.6967C4.00026 5.39314 3.44782 6.21993 3.07091 7.12987C2.694 8.03982 2.5 9.01509 2.5 10L2.78158e-06 10Z"/>
</mask>
<path d="M2.78158e-06 10C2.89638e-06 8.68678 0.25866 7.38642 0.761207 6.17317C1.26376 4.95991 2.00035 3.85752 2.92894 2.92893C3.85752 2.00035 4.95991 1.26375 6.17317 0.761204C7.38642 0.258658 8.68678 9.18316e-07 10 1.03312e-06L10 2.5C9.01509 2.5 8.03982 2.69399 7.12988 3.0709C6.21993 3.44781 5.39314 4.00026 4.6967 4.6967C4.00026 5.39314 3.44782 6.21993 3.07091 7.12987C2.694 8.03982 2.5 9.01509 2.5 10L2.78158e-06 10Z" stroke="#FF4869" stroke-width="5" mask="url(#path-3-inside-1_5271_1958)"/>
</g>
<path d="M29.4091 16V4.36364H33.3409C34.2538 4.36364 35 4.52841 35.5795 4.85795C36.1629 5.18371 36.5947 5.625 36.875 6.18182C37.1553 6.73864 37.2955 7.35985 37.2955 8.04545C37.2955 8.73106 37.1553 9.35417 36.875 9.91477C36.5985 10.4754 36.1705 10.9223 35.5909 11.2557C35.0114 11.5852 34.2689 11.75 33.3636 11.75H30.5455V10.5H33.3182C33.9432 10.5 34.4451 10.392 34.8239 10.1761C35.2027 9.96023 35.4773 9.66856 35.6477 9.30114C35.822 8.92992 35.9091 8.51136 35.9091 8.04545C35.9091 7.57955 35.822 7.16288 35.6477 6.79545C35.4773 6.42803 35.2008 6.14015 34.8182 5.93182C34.4356 5.7197 33.928 5.61364 33.2955 5.61364H30.8182V16H29.4091ZM40.7244 10.75V16H39.3835V4.36364H40.7244V8.63636H40.8381C41.0426 8.18561 41.3494 7.82765 41.7585 7.5625C42.1714 7.29356 42.7206 7.15909 43.4062 7.15909C44.0009 7.15909 44.5218 7.27841 44.9688 7.51705C45.4157 7.75189 45.7623 8.11364 46.0085 8.60227C46.2585 9.08712 46.3835 9.70455 46.3835 10.4545V16H45.0426V10.5455C45.0426 9.85227 44.8627 9.31629 44.5028 8.9375C44.1468 8.55492 43.6525 8.36364 43.0199 8.36364C42.5805 8.36364 42.1866 8.45644 41.8381 8.64205C41.4934 8.82765 41.2206 9.09848 41.0199 9.45455C40.8229 9.81061 40.7244 10.2424 40.7244 10.75ZM52.3821 16.1818C51.5942 16.1818 50.9029 15.9943 50.3082 15.6193C49.7173 15.2443 49.2552 14.7197 48.9219 14.0455C48.5923 13.3712 48.4276 12.5833 48.4276 11.6818C48.4276 10.7727 48.5923 9.97917 48.9219 9.30114C49.2552 8.62311 49.7173 8.09659 50.3082 7.72159C50.9029 7.34659 51.5942 7.15909 52.3821 7.15909C53.17 7.15909 53.8594 7.34659 54.4503 7.72159C55.045 8.09659 55.5071 8.62311 55.8366 9.30114C56.17 9.97917 56.3366 10.7727 56.3366 11.6818C56.3366 12.5833 56.17 13.3712 55.8366 14.0455C55.5071 14.7197 55.045 15.2443 54.4503 15.6193C53.8594 15.9943 53.17 16.1818 52.3821 16.1818ZM52.3821 14.9773C52.9806 14.9773 53.473 14.8239 53.8594 14.517C54.2457 14.2102 54.5317 13.8068 54.7173 13.3068C54.9029 12.8068 54.9957 12.2652 54.9957 11.6818C54.9957 11.0985 54.9029 10.5549 54.7173 10.0511C54.5317 9.54735 54.2457 9.14015 53.8594 8.82955C53.473 8.51894 52.9806 8.36364 52.3821 8.36364C51.7836 8.36364 51.2912 8.51894 50.9048 8.82955C50.5185 9.14015 50.2325 9.54735 50.0469 10.0511C49.8613 10.5549 49.7685 11.0985 49.7685 11.6818C49.7685 12.2652 49.8613 12.8068 50.0469 13.3068C50.2325 13.8068 50.5185 14.2102 50.9048 14.517C51.2912 14.8239 51.7836 14.9773 52.3821 14.9773ZM62.179 7.27273V8.40909H57.6562V7.27273H62.179ZM58.9744 5.18182H60.3153V13.5C60.3153 13.8788 60.3703 14.1629 60.4801 14.3523C60.5938 14.5379 60.7377 14.6629 60.9119 14.7273C61.09 14.7879 61.2775 14.8182 61.4744 14.8182C61.6222 14.8182 61.7434 14.8106 61.8381 14.7955C61.9328 14.7765 62.0085 14.7614 62.0653 14.75L62.3381 15.9545C62.2472 15.9886 62.1203 16.0227 61.9574 16.0568C61.7945 16.0947 61.5881 16.1136 61.3381 16.1136C60.9593 16.1136 60.5881 16.0322 60.2244 15.8693C59.8646 15.7064 59.5653 15.4583 59.3267 15.125C59.0919 14.7917 58.9744 14.3712 58.9744 13.8636V5.18182ZM67.6477 16.1818C66.8598 16.1818 66.1686 15.9943 65.5739 15.6193C64.983 15.2443 64.5208 14.7197 64.1875 14.0455C63.858 13.3712 63.6932 12.5833 63.6932 11.6818C63.6932 10.7727 63.858 9.97917 64.1875 9.30114C64.5208 8.62311 64.983 8.09659 65.5739 7.72159C66.1686 7.34659 66.8598 7.15909 67.6477 7.15909C68.4356 7.15909 69.125 7.34659 69.7159 7.72159C70.3106 8.09659 70.7727 8.62311 71.1023 9.30114C71.4356 9.97917 71.6023 10.7727 71.6023 11.6818C71.6023 12.5833 71.4356 13.3712 71.1023 14.0455C70.7727 14.7197 70.3106 15.2443 69.7159 15.6193C69.125 15.9943 68.4356 16.1818 67.6477 16.1818ZM67.6477 14.9773C68.2462 14.9773 68.7386 14.8239 69.125 14.517C69.5114 14.2102 69.7973 13.8068 69.983 13.3068C70.1686 12.8068 70.2614 12.2652 70.2614 11.6818C70.2614 11.0985 70.1686 10.5549 69.983 10.0511C69.7973 9.54735 69.5114 9.14015 69.125 8.82955C68.7386 8.51894 68.2462 8.36364 67.6477 8.36364C67.0492 8.36364 66.5568 8.51894 66.1705 8.82955C65.7841 9.14015 65.4981 9.54735 65.3125 10.0511C65.1269 10.5549 65.0341 11.0985 65.0341 11.6818C65.0341 12.2652 65.1269 12.8068 65.3125 13.3068C65.4981 13.8068 65.7841 14.2102 66.1705 14.517C66.5568 14.8239 67.0492 14.9773 67.6477 14.9773ZM77.1719 19.4545C76.5241 19.4545 75.9673 19.3712 75.5014 19.2045C75.0355 19.0417 74.6473 18.8258 74.3366 18.5568C74.0298 18.2917 73.7855 18.0076 73.6037 17.7045L74.6719 16.9545C74.7931 17.1136 74.9465 17.2955 75.1321 17.5C75.3177 17.7083 75.5715 17.8883 75.8935 18.0398C76.2192 18.1951 76.6454 18.2727 77.1719 18.2727C77.8764 18.2727 78.4579 18.1023 78.9162 17.7614C79.3745 17.4205 79.6037 16.8864 79.6037 16.1591V14.3864H79.4901C79.3916 14.5455 79.2514 14.7424 79.0696 14.9773C78.8916 15.2083 78.634 15.4148 78.2969 15.5966C77.9635 15.7746 77.5128 15.8636 76.9446 15.8636C76.2401 15.8636 75.6075 15.697 75.0469 15.3636C74.4901 15.0303 74.0488 14.5455 73.723 13.9091C73.401 13.2727 73.2401 12.5 73.2401 11.5909C73.2401 10.697 73.3973 9.91856 73.7116 9.25568C74.026 8.58901 74.4635 8.07386 75.0241 7.71023C75.5848 7.3428 76.2325 7.15909 76.9673 7.15909C77.5355 7.15909 77.9863 7.25379 78.3196 7.44318C78.6567 7.62879 78.9143 7.84091 79.0923 8.07955C79.2741 8.31439 79.4143 8.50758 79.5128 8.65909H79.6491V7.27273H80.9446V16.25C80.9446 17 80.7741 17.6098 80.4332 18.0795C80.0961 18.553 79.6416 18.8996 79.0696 19.1193C78.5014 19.3428 77.8688 19.4545 77.1719 19.4545ZM77.1264 14.6591C77.6643 14.6591 78.1188 14.536 78.4901 14.2898C78.8613 14.0436 79.1435 13.6894 79.3366 13.2273C79.5298 12.7652 79.6264 12.2121 79.6264 11.5682C79.6264 10.9394 79.5317 10.3845 79.3423 9.90341C79.1529 9.42235 78.8726 9.04545 78.5014 8.77273C78.1302 8.5 77.6719 8.36364 77.1264 8.36364C76.5582 8.36364 76.0848 8.50758 75.706 8.79545C75.331 9.08333 75.0488 9.4697 74.8594 9.95455C74.6738 10.4394 74.581 10.9773 74.581 11.5682C74.581 12.1742 74.6757 12.7102 74.8651 13.1761C75.0582 13.6383 75.3423 14.0019 75.7173 14.267C76.0961 14.5284 76.5658 14.6591 77.1264 14.6591ZM83.3991 16V7.27273H84.6946V8.59091H84.7855C84.9446 8.15909 85.2325 7.80871 85.6491 7.53977C86.0658 7.27083 86.5355 7.13636 87.0582 7.13636C87.1567 7.13636 87.2798 7.13826 87.4276 7.14205C87.5753 7.14583 87.687 7.15152 87.7628 7.15909V8.52273C87.7173 8.51136 87.6132 8.49432 87.4503 8.47159C87.2912 8.44508 87.1226 8.43182 86.9446 8.43182C86.5204 8.43182 86.1416 8.52083 85.8082 8.69886C85.4787 8.87311 85.2173 9.11553 85.0241 9.42614C84.8348 9.73295 84.7401 10.0833 84.7401 10.4773V16H83.3991ZM91.9205 16.2045C91.3674 16.2045 90.8655 16.1004 90.4148 15.892C89.964 15.6799 89.6061 15.375 89.3409 14.9773C89.0758 14.5758 88.9432 14.0909 88.9432 13.5227C88.9432 13.0227 89.0417 12.6174 89.2386 12.3068C89.4356 11.9924 89.6989 11.7462 90.0284 11.5682C90.358 11.3902 90.7216 11.2576 91.1193 11.1705C91.5208 11.0795 91.9242 11.0076 92.3295 10.9545C92.8598 10.8864 93.2898 10.8352 93.6193 10.8011C93.9527 10.7633 94.1951 10.7008 94.3466 10.6136C94.5019 10.5265 94.5795 10.375 94.5795 10.1591V10.1136C94.5795 9.55303 94.4261 9.11742 94.1193 8.80682C93.8163 8.49621 93.3561 8.34091 92.7386 8.34091C92.0985 8.34091 91.5966 8.48106 91.233 8.76136C90.8693 9.04167 90.6136 9.34091 90.4659 9.65909L89.1932 9.20455C89.4205 8.67424 89.7235 8.26136 90.1023 7.96591C90.4848 7.66667 90.9015 7.45833 91.3523 7.34091C91.8068 7.2197 92.2538 7.15909 92.6932 7.15909C92.9735 7.15909 93.2955 7.19318 93.6591 7.26136C94.0265 7.32576 94.3807 7.46023 94.7216 7.66477C95.0663 7.86932 95.3523 8.17803 95.5795 8.59091C95.8068 9.00379 95.9205 9.55682 95.9205 10.25V16H94.5795V14.8182H94.5114C94.4205 15.0076 94.2689 15.2102 94.0568 15.4261C93.8447 15.642 93.5625 15.8258 93.2102 15.9773C92.858 16.1288 92.428 16.2045 91.9205 16.2045ZM92.125 15C92.6553 15 93.1023 14.8958 93.4659 14.6875C93.8333 14.4792 94.1098 14.2102 94.2955 13.8807C94.4848 13.5511 94.5795 13.2045 94.5795 12.8409V11.6136C94.5227 11.6818 94.3977 11.7443 94.2045 11.8011C94.0152 11.8542 93.7955 11.9015 93.5455 11.9432C93.2992 11.9811 93.0587 12.0152 92.8239 12.0455C92.5928 12.072 92.4053 12.0947 92.2614 12.1136C91.9129 12.1591 91.5871 12.233 91.2841 12.3352C90.9848 12.4337 90.7424 12.5833 90.5568 12.7841C90.375 12.9811 90.2841 13.25 90.2841 13.5909C90.2841 14.0568 90.4564 14.4091 90.8011 14.6477C91.1496 14.8826 91.5909 15 92.125 15ZM98.3679 19.2727V7.27273H99.6634V8.65909H99.8224C99.9209 8.50758 100.057 8.31439 100.232 8.07955C100.41 7.84091 100.663 7.62879 100.993 7.44318C101.326 7.25379 101.777 7.15909 102.345 7.15909C103.08 7.15909 103.728 7.3428 104.288 7.71023C104.849 8.07765 105.286 8.59848 105.601 9.27273C105.915 9.94697 106.072 10.7424 106.072 11.6591C106.072 12.5833 105.915 13.3845 105.601 14.0625C105.286 14.7367 104.851 15.2595 104.294 15.6307C103.737 15.9981 103.095 16.1818 102.368 16.1818C101.807 16.1818 101.358 16.089 101.021 15.9034C100.684 15.714 100.425 15.5 100.243 15.2614C100.061 15.0189 99.9209 14.8182 99.8224 14.6591H99.7088V19.2727H98.3679ZM99.6861 11.6364C99.6861 12.2955 99.7827 12.8769 99.9759 13.3807C100.169 13.8807 100.451 14.2727 100.822 14.5568C101.194 14.8371 101.648 14.9773 102.186 14.9773C102.747 14.9773 103.214 14.8295 103.589 14.5341C103.968 14.2348 104.252 13.8333 104.442 13.3295C104.635 12.822 104.732 12.2576 104.732 11.6364C104.732 11.0227 104.637 10.4697 104.447 9.97727C104.262 9.48106 103.98 9.08902 103.601 8.80114C103.226 8.50947 102.754 8.36364 102.186 8.36364C101.641 8.36364 101.182 8.50189 100.811 8.77841C100.44 9.05114 100.16 9.43371 99.9702 9.92614C99.7808 10.4148 99.6861 10.9848 99.6861 11.6364ZM109.459 10.75V16H108.118V4.36364H109.459V8.63636H109.572C109.777 8.18561 110.084 7.82765 110.493 7.5625C110.906 7.29356 111.455 7.15909 112.141 7.15909C112.735 7.15909 113.256 7.27841 113.703 7.51705C114.15 7.75189 114.497 8.11364 114.743 8.60227C114.993 9.08712 115.118 9.70455 115.118 10.4545V16H113.777V10.5455C113.777 9.85227 113.597 9.31629 113.237 8.9375C112.881 8.55492 112.387 8.36364 111.754 8.36364C111.315 8.36364 110.921 8.45644 110.572 8.64205C110.228 8.82765 109.955 9.09848 109.754 9.45455C109.557 9.81061 109.459 10.2424 109.459 10.75ZM118.122 19.2727C117.895 19.2727 117.692 19.2538 117.514 19.2159C117.336 19.1818 117.213 19.1477 117.145 19.1136L117.486 17.9318C117.812 18.0152 118.099 18.0455 118.349 18.0227C118.599 18 118.821 17.8883 119.014 17.6875C119.211 17.4905 119.391 17.1705 119.554 16.7273L119.804 16.0455L116.577 7.27273H118.031L120.44 14.2273H120.531L122.94 7.27273H124.395L120.69 17.2727C120.524 17.7235 120.317 18.0966 120.071 18.392C119.825 18.6913 119.539 18.9129 119.213 19.0568C118.891 19.2008 118.527 19.2727 118.122 19.2727ZM130.847 16V4.36364H132.188V8.65909H132.301C132.4 8.50758 132.536 8.31439 132.71 8.07955C132.888 7.84091 133.142 7.62879 133.472 7.44318C133.805 7.25379 134.256 7.15909 134.824 7.15909C135.559 7.15909 136.206 7.3428 136.767 7.71023C137.328 8.07765 137.765 8.59848 138.08 9.27273C138.394 9.94697 138.551 10.7424 138.551 11.6591C138.551 12.5833 138.394 13.3845 138.08 14.0625C137.765 14.7367 137.33 15.2595 136.773 15.6307C136.216 15.9981 135.574 16.1818 134.847 16.1818C134.286 16.1818 133.837 16.089 133.5 15.9034C133.163 15.714 132.903 15.5 132.722 15.2614C132.54 15.0189 132.4 14.8182 132.301 14.6591H132.142V16H130.847ZM132.165 11.6364C132.165 12.2955 132.261 12.8769 132.455 13.3807C132.648 13.8807 132.93 14.2727 133.301 14.5568C133.672 14.8371 134.127 14.9773 134.665 14.9773C135.225 14.9773 135.693 14.8295 136.068 14.5341C136.447 14.2348 136.731 13.8333 136.92 13.3295C137.114 12.822 137.21 12.2576 137.21 11.6364C137.21 11.0227 137.116 10.4697 136.926 9.97727C136.741 9.48106 136.458 9.08902 136.08 8.80114C135.705 8.50947 135.233 8.36364 134.665 8.36364C134.119 8.36364 133.661 8.50189 133.29 8.77841C132.919 9.05114 132.638 9.43371 132.449 9.92614C132.259 10.4148 132.165 10.9848 132.165 11.6364ZM141.153 19.2727C140.926 19.2727 140.723 19.2538 140.545 19.2159C140.367 19.1818 140.244 19.1477 140.176 19.1136L140.517 17.9318C140.843 18.0152 141.131 18.0455 141.381 18.0227C141.631 18 141.852 17.8883 142.045 17.6875C142.242 17.4905 142.422 17.1705 142.585 16.7273L142.835 16.0455L139.608 7.27273H141.062L143.472 14.2273H143.562L145.972 7.27273H147.426L143.722 17.2727C143.555 17.7235 143.348 18.0966 143.102 18.392C142.856 18.6913 142.57 18.9129 142.244 19.0568C141.922 19.2008 141.559 19.2727 141.153 19.2727ZM158.207 4.36364H160.298V12.5455C160.295 13.2955 160.135 13.9413 159.821 14.483C159.507 15.0208 159.067 15.4356 158.503 15.7273C157.942 16.0152 157.289 16.1591 156.543 16.1591C155.861 16.1591 155.247 16.0379 154.702 15.7955C154.16 15.5492 153.73 15.1856 153.412 14.7045C153.094 14.2235 152.935 13.625 152.935 12.9091H155.031C155.035 13.2235 155.103 13.4943 155.236 13.7216C155.372 13.9489 155.56 14.1231 155.798 14.2443C156.037 14.3655 156.312 14.4261 156.622 14.4261C156.959 14.4261 157.245 14.3561 157.48 14.2159C157.715 14.072 157.893 13.8598 158.014 13.5795C158.139 13.2992 158.204 12.9545 158.207 12.5455V4.36364ZM166.301 16.1705C165.449 16.1705 164.71 15.983 164.085 15.608C163.46 15.233 162.975 14.7083 162.631 14.0341C162.29 13.3598 162.119 12.572 162.119 11.6705C162.119 10.7689 162.29 9.97917 162.631 9.30114C162.975 8.62311 163.46 8.09659 164.085 7.72159C164.71 7.34659 165.449 7.15909 166.301 7.15909C167.153 7.15909 167.892 7.34659 168.517 7.72159C169.142 8.09659 169.625 8.62311 169.966 9.30114C170.311 9.97917 170.483 10.7689 170.483 11.6705C170.483 12.572 170.311 13.3598 169.966 14.0341C169.625 14.7083 169.142 15.233 168.517 15.608C167.892 15.983 167.153 16.1705 166.301 16.1705ZM166.312 14.5227C166.775 14.5227 167.161 14.3958 167.472 14.142C167.782 13.8845 168.013 13.5398 168.165 13.108C168.32 12.6761 168.398 12.1951 168.398 11.6648C168.398 11.1307 168.32 10.6477 168.165 10.2159C168.013 9.7803 167.782 9.43371 167.472 9.17614C167.161 8.91856 166.775 8.78977 166.312 8.78977C165.839 8.78977 165.445 8.91856 165.131 9.17614C164.82 9.43371 164.587 9.7803 164.432 10.2159C164.28 10.6477 164.205 11.1307 164.205 11.6648C164.205 12.1951 164.28 12.6761 164.432 13.108C164.587 13.5398 164.82 13.8845 165.131 14.142C165.445 14.3958 165.839 14.5227 166.312 14.5227ZM174.286 10.8864V16H172.229V4.36364H174.24V8.75568H174.342C174.547 8.26326 174.863 7.875 175.291 7.59091C175.723 7.30303 176.272 7.15909 176.939 7.15909C177.545 7.15909 178.073 7.28598 178.524 7.53977C178.975 7.79356 179.323 8.16477 179.57 8.65341C179.82 9.14205 179.945 9.73864 179.945 10.4432V16H177.888V10.7614C177.888 10.1742 177.736 9.7178 177.433 9.39205C177.134 9.0625 176.714 8.89773 176.172 8.89773C175.808 8.89773 175.482 8.97727 175.195 9.13636C174.911 9.29167 174.687 9.51705 174.524 9.8125C174.365 10.108 174.286 10.4659 174.286 10.8864ZM184.098 10.8864V16H182.041V7.27273H184.007V8.75568H184.109C184.31 8.26705 184.63 7.87879 185.07 7.59091C185.513 7.30303 186.06 7.15909 186.712 7.15909C187.314 7.15909 187.839 7.28788 188.286 7.54545C188.736 7.80303 189.085 8.17614 189.331 8.66477C189.581 9.15341 189.704 9.74621 189.7 10.4432V16H187.643V10.7614C187.643 10.178 187.492 9.72159 187.189 9.39205C186.89 9.0625 186.475 8.89773 185.945 8.89773C185.585 8.89773 185.265 8.97727 184.984 9.13636C184.708 9.29167 184.49 9.51705 184.331 9.8125C184.176 10.108 184.098 10.4659 184.098 10.8864ZM198.3 16L195.016 4.36364H197.283L199.379 12.9148H199.487L201.726 4.36364H203.788L206.033 12.9205H206.135L208.232 4.36364H210.499L207.214 16H205.135L202.805 7.83523H202.714L200.379 16H198.3ZM211.869 16V7.27273H213.926V16H211.869ZM212.903 6.03409C212.578 6.03409 212.297 5.92614 212.062 5.71023C211.828 5.49053 211.71 5.22727 211.71 4.92045C211.71 4.60985 211.828 4.34659 212.062 4.13068C212.297 3.91098 212.578 3.80114 212.903 3.80114C213.233 3.80114 213.513 3.91098 213.744 4.13068C213.979 4.34659 214.097 4.60985 214.097 4.92045C214.097 5.22727 213.979 5.49053 213.744 5.71023C213.513 5.92614 213.233 6.03409 212.903 6.03409ZM219.848 16.1705C218.977 16.1705 218.229 15.9792 217.604 15.5966C216.982 15.214 216.503 14.6856 216.166 14.0114C215.833 13.3333 215.666 12.553 215.666 11.6705C215.666 10.7841 215.837 10.0019 216.178 9.32386C216.518 8.64205 217 8.11174 217.621 7.73295C218.246 7.35038 218.984 7.15909 219.837 7.15909C220.545 7.15909 221.172 7.28977 221.717 7.55114C222.267 7.80871 222.704 8.17424 223.03 8.64773C223.356 9.11742 223.541 9.66667 223.587 10.2955H221.621C221.541 9.875 221.352 9.52462 221.053 9.24432C220.757 8.96023 220.361 8.81818 219.865 8.81818C219.445 8.81818 219.075 8.93182 218.757 9.15909C218.439 9.38258 218.191 9.70455 218.013 10.125C217.839 10.5455 217.751 11.0492 217.751 11.6364C217.751 12.2311 217.839 12.7424 218.013 13.1705C218.187 13.5947 218.431 13.9223 218.746 14.1534C219.064 14.3807 219.437 14.4943 219.865 14.4943C220.168 14.4943 220.439 14.4375 220.678 14.3239C220.92 14.2064 221.123 14.0379 221.286 13.8182C221.448 13.5985 221.56 13.3314 221.621 13.017H223.587C223.537 13.6345 223.356 14.1818 223.041 14.6591C222.727 15.1326 222.299 15.5038 221.757 15.7727C221.215 16.0379 220.579 16.1705 219.848 16.1705ZM227.151 13.2614L227.145 10.7784H227.474L230.611 7.27273H233.014L229.156 11.5682H228.73L227.151 13.2614ZM225.276 16V4.36364H227.332V16H225.276ZM230.753 16L227.912 12.0284L229.298 10.5795L233.213 16H230.753Z" fill="#F6F8FB"/>
</svg>
